<svg width="900" height="680" viewBox="0 0 900 680" fill="none" xmlns="http://www.w3.org/2000/svg" role="img" aria-labelledby="title desc">
  <title id="title">Team AI workshop illustration</title>
  <desc id="desc">A modern line illustration of people learning AI around a shared workspace.</desc>
  <rect width="900" height="680" rx="34" fill="#F3F4F6"/>
  <circle cx="729" cy="126" r="92" fill="#5FA8D3" fill-opacity=".18"/>
  <circle cx="162" cy="551" r="118" fill="#F97316" fill-opacity=".12"/>
  <path d="M167 154h566c26.5 0 48 21.5 48 48v274c0 26.5-21.5 48-48 48H167c-26.5 0-48-21.5-48-48V202c0-26.5 21.5-48 48-48Z" fill="#fff" stroke="#D8DEE7" stroke-width="3"/>
  <path d="M119 239h662" stroke="#D8DEE7" stroke-width="3"/>
  <circle cx="158" cy="197" r="13" fill="#F97316"/>
  <circle cx="199" cy="197" r="13" fill="#5FA8D3"/>
  <circle cx="240" cy="197" r="13" fill="#1F2937"/>
  <path d="M280 313h207M280 359h280M280 405h162" stroke="#5FA8D3" stroke-width="18" stroke-linecap="round"/>
  <path d="M606 306c0-34.8 28.2-63 63-63s63 28.2 63 63c0 22.7-12 42.6-30 53.7V382h-66v-22.3c-18-11.1-30-31-30-53.7Z" fill="#FFF7ED" stroke="#F97316" stroke-width="8"/>
  <path d="M643 405h52M649 429h40" stroke="#F97316" stroke-width="8" stroke-linecap="round"/>
  <path d="M374 559c0-40.3 32.7-73 73-73s73 32.7 73 73" fill="#EAF6FC"/>
  <circle cx="447" cy="432" r="50" fill="#5FA8D3"/>
  <path d="M185 559c0-35.9 29.1-65 65-65s65 29.1 65 65" fill="#FFF7ED"/>
  <circle cx="250" cy="449" r="45" fill="#F97316"/>
  <path d="M590 559c0-35.9 29.1-65 65-65s65 29.1 65 65" fill="#EAF6FC"/>
  <circle cx="655" cy="449" r="45" fill="#1F2937"/>
  <path d="M231 449c9 11 27 11 38 0M429 432c9 11 27 11 38 0M636 449c9 11 27 11 38 0" stroke="#fff" stroke-width="7" stroke-linecap="round"/>
</svg>
